<svg width="15" height="15" viewBox="0 0 15 15" fill="none" xmlns="http://www.w3.org/2000/svg">
<path d="M7.11958 1.17082C7.23932 0.802297 7.76068 0.802296 7.88042 1.17082L9.09405 4.90598C9.1476 5.07079 9.30118 5.18237 9.47447 5.18237H13.4019C13.7893 5.18237 13.9505 5.67822 13.637 5.90598L10.4596 8.21443C10.3195 8.31629 10.2608 8.49684 10.3143 8.66165L11.528 12.3968C11.6477 12.7653 11.2259 13.0718 10.9124 12.844L7.73511 10.5356C7.59492 10.4337 7.40508 10.4337 7.26489 10.5356L4.08757 12.844C3.77408 13.0718 3.35229 12.7653 3.47203 12.3968L4.68566 8.66165C4.73921 8.49684 4.68055 8.31629 4.54035 8.21443L1.36304 5.90598C1.04955 5.67822 1.21066 5.18237 1.59815 5.18237H5.52553C5.69882 5.18237 5.8524 5.07079 5.90595 4.90598L7.11958 1.17082Z" fill="white" fill-opacity="0.2"/>
</svg>
